<svg width="100" height="100" viewBox="0 0 100 100" xmlns="http://www.w3.org/2000/svg">
  <defs>
    <radialGradient id="eyeGradient" cx="50%" cy="50%" r="50%">
      <stop offset="0%" style="stop-color:#ffffff"/>
      <stop offset="30%" style="stop-color:#00f5ff"/>
      <stop offset="70%" style="stop-color:#8b5cf6"/>
      <stop offset="100%" style="stop-color:#1f2937"/>
    </radialGradient>
    <filter id="eyeGlow">
      <feGaussianBlur stdDeviation="4" result="coloredBlur"/>
      <feMerge> 
        <feMergeNode in="coloredBlur"/>
        <feMergeNode in="SourceGraphic"/>
      </feMerge>
    </filter>
  </defs>
  
  <!-- Outer Eye Structure -->
  <ellipse cx="50" cy="50" rx="40" ry="25" fill="url(#eyeGradient)" filter="url(#eyeGlow)"/>
  
  <!-- Iris -->
  <circle cx="50" cy="50" r="18" fill="#1f2937" opacity="0.8"/>
  
  <!-- Pupil -->
  <circle cx="50" cy="50" r="8" fill="#000000"/>
  
  <!-- Digital Crosshairs -->
  <line x1="32" y1="50" x2="48" y2="50" stroke="#00f5ff" stroke-width="1"/>
  <line x1="52" y1="50" x2="68" y2="50" stroke="#00f5ff" stroke-width="1"/>
  <line x1="50" y1="32" x2="50" y2="48" stroke="#00f5ff" stroke-width="1"/>
  <line x1="50" y1="52" x2="50" y2="68" stroke="#00f5ff" stroke-width="1"/>
  
  <!-- Scanning Rings -->
  <circle cx="50" cy="50" r="15" fill="none" stroke="#00f5ff" stroke-width="1" opacity="0.6">
    <animate attributeName="r" values="15;25;15" dur="2s" repeatCount="indefinite"/>
    <animate attributeName="opacity" values="0.6;0.2;0.6" dur="2s" repeatCount="indefinite"/>
  </circle>
  
  <circle cx="50" cy="50" r="20" fill="none" stroke="#ec4899" stroke-width="1" opacity="0.4">
    <animate attributeName="r" values="20;30;20" dur="2.5s" repeatCount="indefinite"/>
    <animate attributeName="opacity" values="0.4;0.1;0.4" dur="2.5s" repeatCount="indefinite"/>
  </circle>
  
  <!-- Digital Grid Overlay -->
  <g opacity="0.3">
    <line x1="20" y1="35" x2="80" y2="35" stroke="#00f5ff" stroke-width="0.5"/>
    <line x1="20" y1="50" x2="80" y2="50" stroke="#00f5ff" stroke-width="0.5"/>
    <line x1="20" y1="65" x2="80" y2="65" stroke="#00f5ff" stroke-width="0.5"/>
    <line x1="30" y1="25" x2="30" y2="75" stroke="#00f5ff" stroke-width="0.5"/>
    <line x1="50" y1="25" x2="50" y2="75" stroke="#00f5ff" stroke-width="0.5"/>
    <line x1="70" y1="25" x2="70" y2="75" stroke="#00f5ff" stroke-width="0.5"/>
  </g>
  
  <!-- Reflection -->
  <ellipse cx="45" cy="42" rx="6" ry="10" fill="#ffffff" opacity="0.4"/>
  
  <!-- Corner Brackets -->
  <path d="M 15 30 L 15 25 L 20 25" stroke="#00f5ff" stroke-width="2" fill="none"/>
  <path d="M 80 25 L 85 25 L 85 30" stroke="#00f5ff" stroke-width="2" fill="none"/>
  <path d="M 85 70 L 85 75 L 80 75" stroke="#00f5ff" stroke-width="2" fill="none"/>
  <path d="M 20 75 L 15 75 L 15 70" stroke="#00f5ff" stroke-width="2" fill="none"/>
  
  <!-- Data Stream -->
  <rect x="88" y="48" width="8" height="4" fill="#ec4899" opacity="0.8">
    <animate attributeName="opacity" values="0;1;0" dur="1s" repeatCount="indefinite"/>
  </rect>
</svg>
