<svg width="100" height="100" viewBox="0 0 100 100" xmlns="http://www.w3.org/2000/svg">
  <defs>
    <linearGradient id="robotGradient1" x1="0%" y1="0%" x2="100%" y2="100%">
      <stop offset="0%" style="stop-color:#00f5ff"/>
      <stop offset="100%" style="stop-color:#8b5cf6"/>
    </linearGradient>
    <filter id="glow1">
      <feGaussianBlur stdDeviation="3" result="coloredBlur"/>
      <feMerge> 
        <feMergeNode in="coloredBlur"/>
        <feMergeNode in="SourceGraphic"/>
      </feMerge>
    </filter>
  </defs>
  
  <!-- Robot Head -->
  <rect x="25" y="20" width="50" height="45" rx="8" fill="url(#robotGradient1)" filter="url(#glow1)"/>
  
  <!-- Eyes -->
  <circle cx="35" cy="35" r="6" fill="#ffffff" opacity="0.9"/>
  <circle cx="65" cy="35" r="6" fill="#ffffff" opacity="0.9"/>
  <circle cx="35" cy="35" r="3" fill="#00f5ff"/>
  <circle cx="65" cy="35" r="3" fill="#00f5ff"/>
  
  <!-- Antenna -->
  <line x1="50" y1="20" x2="50" y2="10" stroke="#00f5ff" stroke-width="2"/>
  <circle cx="50" cy="8" r="3" fill="#8b5cf6"/>
  
  <!-- Body -->
  <rect x="30" y="65" width="40" height="30" rx="5" fill="url(#robotGradient1)" opacity="0.8"/>
  
  <!-- Arms -->
  <rect x="15" y="70" width="15" height="8" rx="4" fill="url(#robotGradient1)" opacity="0.7"/>
  <rect x="70" y="70" width="15" height="8" rx="4" fill="url(#robotGradient1)" opacity="0.7"/>
  
  <!-- Digital Elements -->
  <rect x="40" y="50" width="20" height="8" rx="2" fill="#00f5ff" opacity="0.6"/>
  <rect x="42" y="52" width="4" height="4" fill="#ffffff"/>
  <rect x="48" y="52" width="4" height="4" fill="#ffffff"/>
  <rect x="54" y="52" width="4" height="4" fill="#ffffff"/>
  
  <animateTransform attributeName="transform" type="rotate" values="0 50 50;5 50 50;0 50 50;-5 50 50;0 50 50" dur="3s" repeatCount="indefinite"/>
</svg>
