<svg width="100" height="100" viewBox="0 0 100 100" xmlns="http://www.w3.org/2000/svg">
  <defs>
    <linearGradient id="vrGradient" x1="0%" y1="0%" x2="100%" y2="100%">
      <stop offset="0%" style="stop-color:#a855f7"/>
      <stop offset="50%" style="stop-color:#3b82f6"/>
      <stop offset="100%" style="stop-color:#06b6d4"/>
    </linearGradient>
    <filter id="vrGlow">
      <feGaussianBlur stdDeviation="2" result="coloredBlur"/>
      <feMerge> 
        <feMergeNode in="coloredBlur"/>
        <feMergeNode in="SourceGraphic"/>
      </feMerge>
    </filter>
  </defs>
  
  <!-- VR Headset Main Body -->
  <ellipse cx="50" cy="45" rx="35" ry="20" fill="url(#vrGradient)" filter="url(#vrGlow)"/>
  
  <!-- Lenses -->
  <circle cx="38" cy="45" r="12" fill="#000000" opacity="0.8"/>
  <circle cx="62" cy="45" r="12" fill="#000000" opacity="0.8"/>
  
  <!-- Lens Reflections -->
  <circle cx="40" cy="42" r="4" fill="#00f5ff" opacity="0.6"/>
  <circle cx="64" cy="42" r="4" fill="#00f5ff" opacity="0.6"/>
  
  <!-- Head Strap -->
  <path d="M 15 45 Q 10 35 15 25 Q 50 15 85 25 Q 90 35 85 45" stroke="url(#vrGradient)" stroke-width="6" fill="none"/>
  
  <!-- Digital Display Effects -->
  <rect x="30" y="35" width="40" height="20" rx="10" fill="none" stroke="#00f5ff" stroke-width="1" opacity="0.4">
    <animate attributeName="opacity" values="0.2;0.8;0.2" dur="2s" repeatCount="indefinite"/>
  </rect>
  
  <!-- Controllers -->
  <ellipse cx="25" cy="65" rx="8" ry="15" fill="url(#vrGradient)" opacity="0.7"/>
  <ellipse cx="75" cy="65" rx="8" ry="15" fill="url(#vrGradient)" opacity="0.7"/>
  
  <!-- Controller Buttons -->
  <circle cx="25" cy="60" r="2" fill="#ffffff"/>
  <circle cx="75" cy="60" r="2" fill="#ffffff"/>
  
  <!-- Holographic Effect -->
  <polygon points="45,25 55,25 52,15 48,15" fill="#00f5ff" opacity="0.3">
    <animateTransform attributeName="transform" type="scale" values="1;1.2;1" dur="1.5s" repeatCount="indefinite"/>
  </polygon>
</svg>
