<svg width="100" height="100" viewBox="0 0 100 100" xmlns="http://www.w3.org/2000/svg">
  <defs>
    <linearGradient id="cubeGradient1" x1="0%" y1="0%" x2="100%" y2="100%">
      <stop offset="0%" style="stop-color:#00f5ff"/>
      <stop offset="100%" style="stop-color:#1f2937"/>
    </linearGradient>
    <linearGradient id="cubeGradient2" x1="0%" y1="0%" x2="100%" y2="100%">
      <stop offset="0%" style="stop-color:#8b5cf6"/>
      <stop offset="100%" style="stop-color:#1f2937"/>
    </linearGradient>
    <linearGradient id="cubeGradient3" x1="0%" y1="0%" x2="100%" y2="100%">
      <stop offset="0%" style="stop-color:#ec4899"/>
      <stop offset="100%" style="stop-color:#1f2937"/>
    </linearGradient>
    <filter id="cubeGlow">
      <feGaussianBlur stdDeviation="2" result="coloredBlur"/>
      <feMerge> 
        <feMergeNode in="coloredBlur"/>
        <feMergeNode in="SourceGraphic"/>
      </feMerge>
    </filter>
  </defs>
  
  <!-- Quantum Cube Main Structure -->
  <g transform="translate(50,50)" filter="url(#cubeGlow)">
    <!-- Front Face -->
    <polygon points="-15,-15 15,-15 15,15 -15,15" fill="url(#cubeGradient1)" opacity="0.8" stroke="#00f5ff" stroke-width="1"/>
    
    <!-- Right Face -->
    <polygon points="15,-15 25,-25 25,5 15,15" fill="url(#cubeGradient2)" opacity="0.6" stroke="#8b5cf6" stroke-width="1"/>
    
    <!-- Top Face -->
    <polygon points="-15,-15 -5,-25 25,-25 15,-15" fill="url(#cubeGradient3)" opacity="0.7" stroke="#ec4899" stroke-width="1"/>
    
    <!-- Quantum Animation -->
    <animateTransform attributeName="transform" type="rotate" values="0;360" dur="8s" repeatCount="indefinite"/>
  </g>
  
  <!-- Inner Quantum Core -->
  <circle cx="50" cy="50" r="8" fill="#ffffff" opacity="0.8">
    <animate attributeName="r" values="6;12;6" dur="3s" repeatCount="indefinite"/>
    <animate attributeName="opacity" values="0.6;1;0.6" dur="3s" repeatCount="indefinite"/>
  </circle>
  
  <!-- Quantum Particles -->
  <g>
    <circle cx="30" cy="30" r="2" fill="#00f5ff">
      <animateMotion dur="4s" repeatCount="indefinite">
        <mpath href="#orbit1"/>
      </animateMotion>
    </circle>
    <circle cx="70" cy="30" r="2" fill="#8b5cf6">
      <animateMotion dur="4s" begin="1s" repeatCount="indefinite">
        <mpath href="#orbit2"/>
      </animateMotion>
    </circle>
    <circle cx="70" cy="70" r="2" fill="#ec4899">
      <animateMotion dur="4s" begin="2s" repeatCount="indefinite">
        <mpath href="#orbit3"/>
      </animateMotion>
    </circle>
    <circle cx="30" cy="70" r="2" fill="#fbbf24">
      <animateMotion dur="4s" begin="3s" repeatCount="indefinite">
        <mpath href="#orbit4"/>
      </animateMotion>
    </circle>
  </g>
  
  <!-- Quantum Orbit Paths -->
  <path id="orbit1" d="M 30,30 Q 50,10 70,30 Q 90,50 70,70 Q 50,90 30,70 Q 10,50 30,30" opacity="0"/>
  <path id="orbit2" d="M 70,30 Q 90,50 70,70 Q 50,90 30,70 Q 10,50 30,30 Q 50,10 70,30" opacity="0"/>
  <path id="orbit3" d="M 70,70 Q 50,90 30,70 Q 10,50 30,30 Q 50,10 70,30 Q 90,50 70,70" opacity="0"/>
  <path id="orbit4" d="M 30,70 Q 10,50 30,30 Q 50,10 70,30 Q 90,50 70,70 Q 50,90 30,70" opacity="0"/>
  
  <!-- Quantum Field Lines -->
  <g opacity="0.4">
    <line x1="20" y1="20" x2="80" y2="80" stroke="#00f5ff" stroke-width="1">
      <animate attributeName="opacity" values="0.2;0.8;0.2" dur="2s" repeatCount="indefinite"/>
    </line>
    <line x1="80" y1="20" x2="20" y2="80" stroke="#ec4899" stroke-width="1">
      <animate attributeName="opacity" values="0.2;0.8;0.2" dur="2s" begin="0.5s" repeatCount="indefinite"/>
    </line>
    <line x1="50" y1="10" x2="50" y2="90" stroke="#8b5cf6" stroke-width="1">
      <animate attributeName="opacity" values="0.2;0.8;0.2" dur="2s" begin="1s" repeatCount="indefinite"/>
    </line>
    <line x1="10" y1="50" x2="90" y2="50" stroke="#fbbf24" stroke-width="1">
      <animate attributeName="opacity" values="0.2;0.8;0.2" dur="2s" begin="1.5s" repeatCount="indefinite"/>
    </line>
  </g>
  
  <!-- Quantum Entanglement Waves -->
  <circle cx="50" cy="50" r="30" fill="none" stroke="#00f5ff" stroke-width="1" opacity="0.3">
    <animate attributeName="r" values="25;35;25" dur="4s" repeatCount="indefinite"/>
    <animate attributeName="opacity" values="0.1;0.5;0.1" dur="4s" repeatCount="indefinite"/>
  </circle>
  
  <circle cx="50" cy="50" r="40" fill="none" stroke="#ec4899" stroke-width="1" opacity="0.2">
    <animate attributeName="r" values="35;45;35" dur="5s" repeatCount="indefinite"/>
    <animate attributeName="opacity" values="0.1;0.4;0.1" dur="5s" repeatCount="indefinite"/>
  </circle>
  
  <!-- Probability Cloud -->
  <g opacity="0.3">
    <circle cx="40" cy="35" r="3" fill="#ffffff">
      <animate attributeName="opacity" values="0;0.8;0" dur="1s" repeatCount="indefinite"/>
    </circle>
    <circle cx="60" cy="40" r="2" fill="#00f5ff">
      <animate attributeName="opacity" values="0;0.8;0" dur="1s" begin="0.2s" repeatCount="indefinite"/>
    </circle>
    <circle cx="45" cy="65" r="2" fill="#ec4899">
      <animate attributeName="opacity" values="0;0.8;0" dur="1s" begin="0.4s" repeatCount="indefinite"/>
    </circle>
    <circle cx="65" cy="60" r="3" fill="#8b5cf6">
      <animate attributeName="opacity" values="0;0.8;0" dur="1s" begin="0.6s" repeatCount="indefinite"/>
    </circle>
  </g>
  
  <!-- Dimensional Grid -->
  <g opacity="0.2">
    <line x1="25" y1="25" x2="75" y2="25" stroke="#ffffff" stroke-width="0.5"/>
    <line x1="25" y1="50" x2="75" y2="50" stroke="#ffffff" stroke-width="0.5"/>
    <line x1="25" y1="75" x2="75" y2="75" stroke="#ffffff" stroke-width="0.5"/>
    <line x1="25" y1="25" x2="25" y2="75" stroke="#ffffff" stroke-width="0.5"/>
    <line x1="50" y1="25" x2="50" y2="75" stroke="#ffffff" stroke-width="0.5"/>
    <line x1="75" y1="25" x2="75" y2="75" stroke="#ffffff" stroke-width="0.5"/>
  </g>
</svg>
